<svg width="45" height="45" viewBox="0 0 45 45" fill="none" xmlns="http://www.w3.org/2000/svg">
<circle cx="22.5" cy="22.5" r="22.5" fill="#FFF5D9"/>
<g clip-path="url(#clip0_158_1365)">
<path d="M30.5 17.75H26.75V17C26.75 16.1728 26.0773 15.5 25.25 15.5H20.75C19.9227 15.5 19.25 16.1727 19.25 17V17.75H15.5C14.6727 17.75 14 18.4228 14 19.25V21.5C14 22.3273 14.6727 23 15.5 23H21.5V22.625C21.5 22.4177 21.6678 22.25 21.875 22.25H24.125C24.3323 22.25 24.5 22.4177 24.5 22.625V23H30.5001C31.3273 23 32 22.3273 32 21.5V19.25C32 18.4228 31.3273 17.75 30.5 17.75ZM25.25 17.75H20.75V17H25.25V17.75Z" fill="#FFBB38"/>
<path d="M31.792 23.4046C31.6642 23.3412 31.5115 23.3559 31.3987 23.4416C31.1321 23.6434 30.8215 23.7499 30.5 23.7499H24.5V24.8749C24.5 25.0822 24.3323 25.2499 24.125 25.2499H21.875C21.6677 25.2499 21.5 25.0822 21.5 24.8749V23.7499H15.5C15.1785 23.7499 14.8679 23.6434 14.6013 23.4416C14.4881 23.3552 14.3358 23.3405 14.208 23.4046C14.0806 23.468 14 23.598 14 23.7404V29C14 29.8272 14.6727 30.5 15.5 30.5H30.5C31.3273 30.5 32 29.8273 32 29V23.7404C32 23.598 31.9194 23.468 31.792 23.4046Z" fill="#FFBB38"/>
</g>
<defs>
<clipPath id="clip0_158_1365">
<rect width="18" height="18" fill="white" transform="translate(14 14)"/>
</clipPath>
</defs>
</svg>
