<svg width="45" height="45" viewBox="0 0 45 45" fill="none" xmlns="http://www.w3.org/2000/svg">
<circle cx="22.5" cy="22.5" r="22.5" fill="#DCFAF8"/>
<g clip-path="url(#clip0_158_1366)">
<path d="M31.9862 17.1347C31.9097 16.2646 30.8535 15.8773 30.2352 16.4956L29.3521 17.3787C29.1547 17.5761 28.8305 17.5793 28.6295 17.3858C28.4209 17.1851 28.4317 16.8392 28.6367 16.6341L29.5053 15.7656C30.123 15.1479 29.7372 14.0913 28.8665 14.0146C26.4998 13.8066 24.6226 16.0076 25.2502 18.3415L14.4993 29.0925C13.8336 29.7581 13.8335 30.8357 14.4993 31.5015C15.1635 32.1657 16.2442 32.1658 16.9084 31.5015L27.6566 20.7534C29.9626 21.3804 32.1965 19.5229 31.9862 17.1347Z" fill="#16DBCC"/>
<path d="M15.1249 18.1295C15.1501 18.1792 15.183 18.2246 15.2224 18.264L16.7485 19.79C16.9544 19.996 17.2883 19.9959 17.4942 19.79L18.2703 19.0139L19.7524 20.4961L18.1679 22.0806C17.7573 22.4919 17.7576 23.1609 18.1682 23.5718L18.3345 23.7381L23.7427 18.3303L23.5764 18.164C23.1637 17.752 22.4978 17.7514 22.0845 18.164L20.4981 19.7503L19.016 18.2682L19.7921 17.4921C19.998 17.2862 19.998 16.9523 19.7921 16.7464L18.2661 15.2203C18.2262 15.1804 18.1802 15.1473 18.1299 15.122L16.1794 14.1421C15.9762 14.04 15.7306 14.0796 15.5698 14.2404L14.237 15.5732C14.0758 15.7344 14.0364 15.9809 14.1395 16.1844L15.1249 18.1295Z" fill="#16DBCC"/>
<path d="M26.8295 23.072L23.0757 26.8258L27.3867 31.1379C28.4238 32.175 30.1028 32.1753 31.1401 31.1379C32.1751 30.103 32.1751 28.419 31.1401 27.3844L26.8295 23.072ZM29.9185 29.9152C29.7139 30.1205 29.3792 30.1215 29.1729 29.9152L26.1798 26.9222C25.9738 26.7161 25.9738 26.3822 26.1798 26.1765C26.3859 25.9705 26.7198 25.9705 26.9255 26.1765L29.9185 29.1696C30.1245 29.3756 30.1245 29.7092 29.9185 29.9152Z" fill="#16DBCC"/>
</g>
<defs>
<clipPath id="clip0_158_1366">
<rect width="18" height="18" fill="white" transform="translate(14 14)"/>
</clipPath>
</defs>
</svg>
