<svg width="20" height="20" viewBox="0 0 20 20" fill="none" xmlns="http://www.w3.org/2000/svg">
<path d="M10.0001 8.12785C10.3544 8.12785 10.6438 8.4165 10.6438 8.77085C10.6438 9.09419 10.9066 9.35626 11.23 9.35626C11.5526 9.35626 11.8154 9.09419 11.8154 8.77085C11.8154 7.97652 11.2979 7.30621 10.5855 7.06112V6.72892C10.5855 6.40631 10.3234 6.14277 10.0001 6.14277C9.67602 6.14277 9.41395 6.40631 9.41395 6.72892V7.06112C8.70156 7.30621 8.18554 7.97652 8.18554 8.77085C8.18554 9.77262 8.99907 10.5861 10.0001 10.5861C10.3544 10.5861 10.6438 10.8755 10.6438 11.2299C10.6438 11.585 10.3544 11.8736 10.0001 11.8736C9.64575 11.8736 9.35711 11.585 9.35711 11.2299C9.35711 10.9065 9.0943 10.6437 8.77095 10.6437C8.44687 10.6437 8.18554 10.9065 8.18554 11.2299C8.18554 12.0242 8.70156 12.6938 9.41395 12.9389V13.2711C9.41395 13.5951 9.67602 13.858 10.0001 13.858C10.3234 13.858 10.5855 13.5951 10.5855 13.2711V12.9389C11.2979 12.6938 11.8154 12.0242 11.8154 11.2299C11.8154 10.2288 11.0011 9.41458 10.0001 9.41458C9.64575 9.41458 9.35711 9.12593 9.35711 8.77085C9.35711 8.4165 9.64575 8.12785 10.0001 8.12785ZM14.9086 13.2534C15.1957 13.4047 15.5493 13.2947 15.6999 13.0097C16.1872 12.0892 16.4441 11.0483 16.4441 9.99999C16.4441 6.44765 13.5524 3.55676 10.0001 3.55676C6.44702 3.55676 3.55613 6.44765 3.55613 9.99999C3.55613 13.5531 6.44702 16.444 10.0001 16.444C11.0329 16.444 12.059 16.1944 12.9678 15.7212C13.2549 15.5729 13.3664 15.2178 13.2173 14.9313C13.0682 14.6456 12.7146 14.532 12.4266 14.6818C11.6744 15.0746 10.8572 15.2731 10.0001 15.2731C7.09297 15.2731 4.72696 12.9079 4.72696 9.99999C4.72696 7.0936 7.09297 4.72759 10.0001 4.72759C12.9072 4.72759 15.2732 7.0936 15.2732 9.99999C15.2732 10.8585 15.0621 11.7097 14.6649 12.4612C14.5129 12.7477 14.6221 13.102 14.9086 13.2534ZM10.0001 1.21216C8.30292 1.21216 6.6552 1.69791 5.23559 2.61552C4.96319 2.79122 4.88567 3.15369 5.06137 3.42536C5.23781 3.69702 5.5988 3.7738 5.87194 3.59958C7.10035 2.80525 8.52956 2.38446 10.0001 2.38446C14.1999 2.38446 17.6156 5.80097 17.6156 9.99999C17.6156 14.1998 14.1999 17.6163 10.0001 17.6163C5.80034 17.6163 2.38383 14.1998 2.38383 9.99999C2.38383 8.54347 2.7965 7.12682 3.57828 5.90506C3.7525 5.63191 3.67277 5.26944 3.39963 5.09522C3.12722 4.921 2.76475 5.00073 2.59127 5.27314C1.68916 6.68388 1.21227 8.31979 1.21227 9.99999C1.21227 14.8464 5.15365 18.7878 10.0001 18.7878C14.8458 18.7878 18.7879 14.8464 18.7879 9.99999C18.7879 5.15502 14.8458 1.21216 10.0001 1.21216Z" fill="#16DBCC"/>
</svg>
