<svg width="20" height="20" viewBox="0 0 20 20" fill="none" xmlns="http://www.w3.org/2000/svg">
<path d="M16.425 5.98755C16.4151 4.8945 15.9744 3.84948 15.1985 3.07947C14.4227 2.30946 13.3744 1.87665 12.2813 1.87505H6.25001C6.1002 1.87312 5.95469 1.92507 5.83997 2.02143C5.72525 2.1178 5.64897 2.25216 5.62501 2.40005L3.48751 15.8063C3.47415 15.8951 3.48008 15.9857 3.50488 16.072C3.52969 16.1582 3.57279 16.2382 3.63126 16.3063C3.68934 16.376 3.76193 16.4323 3.84396 16.4712C3.92599 16.51 4.01549 16.5305 4.10626 16.5313H6.68751L6.55001 17.4001C6.5354 17.4901 6.54069 17.5822 6.56549 17.67C6.59029 17.7578 6.634 17.8391 6.69357 17.9082C6.75313 17.9773 6.82709 18.0325 6.91026 18.07C6.99343 18.1074 7.08379 18.1262 7.17501 18.1251H10.0813C10.2302 18.1272 10.3749 18.0761 10.4895 17.981C10.6041 17.8859 10.681 17.753 10.7063 17.6063L11.3313 13.7876H13.3C14.5322 13.7826 15.7124 13.29 16.5826 12.4175C17.4527 11.545 17.9421 10.3635 17.9438 9.1313V8.9563C17.9431 8.37667 17.8052 7.80543 17.5412 7.2894C17.2772 6.77337 16.8947 6.32724 16.425 5.98755ZM6.78126 3.12505H12.2813C12.937 3.12706 13.5727 3.35124 14.0846 3.76101C14.5965 4.17077 14.9544 4.74194 15.1 5.3813C14.8296 5.31789 14.5527 5.28642 14.275 5.28755H9.06251C8.9127 5.28562 8.76718 5.33757 8.65247 5.43393C8.53775 5.5303 8.46147 5.66466 8.43751 5.81255L8.06876 8.12505C8.04223 8.29081 8.08265 8.46032 8.1811 8.59628C8.27956 8.73225 8.428 8.82353 8.59376 8.85005C8.75952 8.87657 8.92902 8.83616 9.06499 8.7377C9.20095 8.63925 9.29223 8.49081 9.31876 8.32505L9.60626 6.52505H14.2875C14.5871 6.52662 14.8838 6.58385 15.1625 6.6938C15.0437 7.67221 14.5716 8.57354 13.8351 9.2284C13.0985 9.88327 12.1481 10.2466 11.1625 10.2501H8.26251C8.11361 10.2479 7.96884 10.299 7.85425 10.3941C7.73967 10.4892 7.66281 10.6221 7.63751 10.7688L6.87501 15.2813H4.83751L6.78126 3.12505ZM16.6938 9.1313C16.6921 10.032 16.3344 10.8956 15.6987 11.5337C15.063 12.1717 14.2007 12.5326 13.3 12.5376H10.8C10.6511 12.5354 10.5063 12.5865 10.3918 12.6816C10.2772 12.7767 10.2003 12.9096 10.175 13.0563L9.55001 16.8751H7.90001L8.03751 16.0063L8.78751 11.5126H11.15C12.3168 11.5091 13.4497 11.1198 14.3722 10.4054C15.2946 9.69092 15.9549 8.6914 16.25 7.56255C16.5401 7.96927 16.6953 8.45673 16.6938 8.9563V9.1313Z" fill="#396AFF"/>
</svg>
