<svg width="50" height="50" viewBox="0 0 50 50" fill="none" xmlns="http://www.w3.org/2000/svg">
<circle cx="25" cy="25" r="25" fill="#FFE0EB"/>
<g clip-path="url(#clip0_152_1513)">
<path d="M25.5862 25.5855V15C19.9162 15.2974 15.2981 19.9154 15.0007 25.5855H25.5862ZM23.2426 23.8278H22.0708V22.6559H23.2426V23.8278ZM19.7271 20.3123H20.8989V21.4841H19.7271V20.3123ZM22.6567 20.0697L23.4852 20.8982L20.313 24.0704L19.4845 23.2418L22.6567 20.0697Z" fill="#FF82AC"/>
<path d="M25.586 26.7573H18.5774C18.8629 30.4914 21.852 33.4804 25.5861 33.766V26.7573H25.586Z" fill="#FF82AC"/>
<path d="M26.7578 17.3438C26.7578 17.4696 26.7578 35.1376 26.7578 34.9993C31.3308 34.6956 34.9997 30.7616 34.9997 26.113C34.9997 21.464 31.3319 17.6464 26.7578 17.3438ZM30.2733 25.5856C31.2426 25.5856 32.031 26.3741 32.031 27.3433C32.031 28.1062 31.5397 28.7505 30.8592 28.9932V30.2729H29.6874V28.9932C29.0069 28.7505 28.5156 28.1062 28.5156 27.3433H29.6874C29.6874 27.6666 29.95 27.9293 30.2733 27.9293C30.5966 27.9293 30.8592 27.6666 30.8592 27.3433C30.8592 27.0201 30.5966 26.7574 30.2733 26.7574C29.304 26.7574 28.5156 25.9689 28.5156 24.9997C28.5156 24.2368 29.0069 23.5926 29.6874 23.3499V22.0701H30.8592V23.3499C31.5397 23.5926 32.031 24.2368 32.031 24.9997H30.8592C30.8592 24.6764 30.5966 24.4138 30.2733 24.4138C29.95 24.4138 29.6874 24.6764 29.6874 24.9997C29.6874 25.323 29.95 25.5856 30.2733 25.5856Z" fill="#FF82AC"/>
</g>
<defs>
<clipPath id="clip0_152_1513">
<rect width="20" height="20" fill="white" transform="translate(15 15)"/>
</clipPath>
</defs>
</svg>
