<svg width="45" height="45" viewBox="0 0 45 45" fill="none" xmlns="http://www.w3.org/2000/svg">
<circle cx="22.5" cy="22.5" r="22.5" fill="#E7EDFF"/>
<g clip-path="url(#clip0_158_1286)">
<path d="M22.8716 22.6707C24.0628 22.6707 25.0943 22.2434 25.937 21.4005C26.7798 20.5577 27.2071 19.5265 27.2071 18.3352C27.2071 17.1443 26.7798 16.1129 25.9369 15.2699C25.094 14.4272 24.0626 14 22.8716 14C21.6803 14 20.6491 14.4272 19.8063 15.27C18.9635 16.1128 18.5361 17.1441 18.5361 18.3352C18.5361 19.5265 18.9635 20.5579 19.8064 21.4006C20.6493 22.2433 21.6807 22.6707 22.8716 22.6707Z" fill="#396AFF"/>
<path d="M30.4576 27.841C30.4333 27.4902 30.3841 27.1076 30.3118 26.7036C30.2387 26.2966 30.1446 25.9118 30.032 25.5601C29.9157 25.1966 29.7575 24.8376 29.5619 24.4936C29.359 24.1365 29.1206 23.8256 28.8531 23.5698C28.5733 23.3021 28.2308 23.0869 27.8348 22.93C27.4401 22.7738 27.0027 22.6947 26.5348 22.6947C26.3511 22.6947 26.1734 22.7701 25.8302 22.9935C25.619 23.1313 25.3719 23.2906 25.0962 23.4668C24.8604 23.617 24.5409 23.7578 24.1464 23.8852C23.7615 24.0098 23.3706 24.0729 22.9849 24.0729C22.5991 24.0729 22.2084 24.0098 21.8231 23.8852C21.4289 23.7579 21.1095 23.6172 20.874 23.4669C20.6008 23.2924 20.3536 23.1331 20.1393 22.9934C19.7965 22.77 19.6187 22.6946 19.4349 22.6946C18.9669 22.6946 18.5297 22.7738 18.1351 22.9301C17.7393 23.0868 17.3967 23.302 17.1167 23.5699C16.8493 23.8259 16.6108 24.1367 16.4081 24.4936C16.2126 24.8376 16.0544 25.1964 15.938 25.5602C15.8255 25.9119 15.7314 26.2966 15.6584 26.7036C15.586 27.1071 15.5368 27.4898 15.5125 27.8414C15.4886 28.1858 15.4766 28.5433 15.4766 28.9043C15.4766 29.8439 15.7753 30.6046 16.3643 31.1656C16.946 31.7191 17.7157 32 18.6517 32H27.3188C28.2548 32 29.0243 31.7193 29.6062 31.1656C30.1953 30.605 30.494 29.8442 30.494 28.9042C30.4939 28.5415 30.4816 28.1837 30.4576 27.841Z" fill="#396AFF"/>
</g>
<defs>
<clipPath id="clip0_158_1286">
<rect width="17.9999" height="18" fill="white" transform="translate(14 14)"/>
</clipPath>
</defs>
</svg>
