<svg width="50" height="50" viewBox="0 0 50 50" fill="none" xmlns="http://www.w3.org/2000/svg">
<circle cx="25" cy="25" r="25" fill="#E7EDFF"/>
<g clip-path="url(#clip0_152_1534)">
<path d="M34.8174 18.9334L31.0675 15.1835C30.8887 15.0048 30.62 14.951 30.3863 15.0485C30.1525 15.146 30 15.3723 30 15.6248V17.4997H21.8753C18.0779 17.4997 15.0005 20.5771 15.0005 24.3745C15.0005 24.7195 15.2805 24.9995 15.6255 24.9995H18.1254C18.4704 24.9995 18.7504 24.7195 18.7504 24.3745C18.7504 22.6483 20.1491 21.2496 21.8753 21.2496H30V23.1245C30 23.377 30.1525 23.6058 30.3863 23.702C30.62 23.7995 30.8887 23.7458 31.0675 23.567L34.8174 19.8171C35.0611 19.5734 35.0611 19.1772 34.8174 18.9334Z" fill="#396AFF"/>
<path d="M34.3747 24.9995H31.8748C31.5298 24.9995 31.2498 25.2795 31.2498 25.6245C31.2498 27.3507 29.8511 28.7494 28.1249 28.7494H20.0002V26.8745C20.0002 26.622 19.8477 26.3932 19.6139 26.297C19.3802 26.2007 19.1127 26.2545 18.9327 26.4332L15.1828 30.1831C14.9391 30.4269 14.9391 30.8231 15.1828 31.0668L18.9327 34.8167C19.1114 34.9955 19.3802 35.0492 19.6139 34.9517C19.8477 34.8542 20.0002 34.6267 20.0002 34.3742V32.4993H28.1249C31.9223 32.4993 34.9997 29.4219 34.9997 25.6245C34.9997 25.2795 34.7197 24.9995 34.3747 24.9995Z" fill="#396AFF"/>
</g>
<defs>
<clipPath id="clip0_152_1534">
<rect width="20" height="20" fill="white" transform="translate(15 15)"/>
</clipPath>
</defs>
</svg>
