<svg width="50" height="50" viewBox="0 0 50 50" fill="none" xmlns="http://www.w3.org/2000/svg">
<circle cx="25" cy="25" r="25" fill="#E7EDFF"/>
<g clip-path="url(#clip0_163_362)">
<path d="M33.2112 17.7284C30.6138 17.7284 28.6258 17.0774 27.4154 16.5313C26.0997 15.9377 25.3902 15.3352 25.3843 15.3302L25.001 15L24.6172 15.3292C24.6102 15.3352 23.9006 15.9377 22.5849 16.5313C21.3746 17.0774 19.3866 17.7284 16.7891 17.7284H16.2026V25.7793L25.0002 35L33.7977 25.7874V17.7284H33.2112ZM31.4517 23.205C31.4517 24.1145 31.0983 24.9697 30.4564 25.6137L25.0002 31.2817L19.5439 25.6137C18.902 24.9697 18.5487 24.1145 18.5487 23.205V22.9001C18.5487 21.0186 20.0793 19.4879 21.9608 19.4879C22.8052 19.4879 23.6159 19.799 24.2435 20.3638L24.9789 21.0257L25.5173 20.4873C26.1618 19.8428 27.0187 19.4878 27.9301 19.4878H28.0395C29.921 19.4878 31.4517 21.0185 31.4517 22.9V23.205H31.4517Z" fill="#396AFF"/>
<path d="M28.0395 20.6609H27.9302C27.3321 20.6609 26.7698 20.8938 26.3468 21.3168L25.0215 22.6421L23.4588 21.2357C23.047 20.865 22.515 20.6609 21.9609 20.6609C20.7262 20.6609 19.7217 21.6654 19.7217 22.9001V23.205C19.7217 23.8031 19.9546 24.3654 20.3775 24.7883L20.3853 24.7963L25.0002 29.5902L29.6229 24.7883C30.0458 24.3654 30.2787 23.8031 30.2787 23.2049V22.9C30.2787 21.6655 29.2742 20.6609 28.0395 20.6609ZM26.7597 25.9395H25.5867V27.1125H24.4137V25.9395H23.2407V24.7665H24.4137V23.5934H25.5867V24.7665H26.7597V25.9395Z" fill="#396AFF"/>
</g>
<defs>
<clipPath id="clip0_163_362">
<rect width="20" height="20" fill="white" transform="translate(15 15)"/>
</clipPath>
</defs>
</svg>
