<svg width="50" height="50" viewBox="0 0 50 50" fill="none" xmlns="http://www.w3.org/2000/svg">
<circle cx="25" cy="25" r="25" fill="#DCFAF8"/>
<g clip-path="url(#clip0_163_398)">
<path d="M32.6553 28.3559C32.1178 29.8128 31.3048 31.0796 30.2387 32.1207C29.0251 33.3057 27.4361 34.2473 25.5156 34.919C25.4526 34.941 25.3868 34.959 25.3207 34.9722C25.2335 34.9895 25.1447 34.9988 25.0566 35H25.0394C24.9455 35 24.8512 34.9905 24.7577 34.9722C24.6916 34.959 24.6268 34.941 24.5641 34.9194C22.6413 34.2488 21.0503 33.3077 19.8355 32.1227C18.7689 31.0815 17.9561 29.8155 17.4193 28.3586C16.4432 25.7097 16.4987 22.7916 16.5434 20.4466L16.5442 20.4106C16.5532 20.217 16.559 20.0136 16.5622 19.789C16.5785 18.6862 17.4553 17.7739 18.5582 17.7124C20.8577 17.5841 22.6366 16.8341 24.1565 15.3526L24.1698 15.3404C24.4222 15.1089 24.7401 14.9954 25.0566 15.0001C25.3618 15.0041 25.6657 15.1175 25.9091 15.3404L25.9221 15.3526C27.4423 16.8341 29.2212 17.5841 31.5207 17.7124C32.6236 17.7739 33.5004 18.6862 33.5167 19.789C33.5199 20.0151 33.5257 20.2182 33.5347 20.4106L33.5352 20.4259C33.5797 22.7753 33.635 25.6992 32.6553 28.3559Z" fill="#16DBCC"/>
<path d="M32.6554 28.356C32.1178 29.8129 31.3048 31.0797 30.2387 32.1208C29.0251 33.3058 27.4361 34.2474 25.5156 34.9191C25.4526 34.9411 25.3868 34.9591 25.3208 34.9723C25.2335 34.9896 25.1447 34.9989 25.0566 35.0001V15.0002C25.3618 15.0042 25.6658 15.1176 25.9091 15.3405L25.9221 15.3527C27.4424 16.8342 29.2212 17.5842 31.5207 17.7125C32.6236 17.774 33.5004 18.6863 33.5167 19.7891C33.5199 20.0152 33.5257 20.2183 33.5347 20.4107L33.5352 20.426C33.5797 22.7754 33.635 25.6993 32.6554 28.356Z" fill="#16DBCC"/>
<path d="M30.0237 25.0001C30.0237 27.7425 27.797 29.9749 25.0568 29.9847H25.0393C22.291 29.9847 20.0547 27.7485 20.0547 25.0001C20.0547 22.2518 22.291 20.0156 25.0393 20.0156H25.0568C27.797 20.0254 30.0237 22.2578 30.0237 25.0001Z" fill="white"/>
<path d="M28.1015 24.1975L25.0762 26.8814L24.4225 27.4613C24.2681 27.5983 24.0655 27.6667 23.8632 27.6667C23.6606 27.6667 23.4583 27.5983 23.3037 27.4613L21.8982 26.214C21.5893 25.94 21.5893 25.4962 21.8982 25.2221C22.2066 24.9481 22.7075 24.9481 23.0164 25.2221L23.8632 25.9732L26.9833 23.2056C27.2921 22.9315 27.7931 22.9315 28.1015 23.2056C28.4104 23.4796 28.4104 23.9239 28.1015 24.1975Z" fill="#16DBCC"/>
</g>
<defs>
<clipPath id="clip0_163_398">
<rect width="20" height="20" fill="white" transform="translate(15 15)"/>
</clipPath>
</defs>
</svg>
