<svg width="45" height="45" viewBox="0 0 45 45" fill="none" xmlns="http://www.w3.org/2000/svg">
<rect width="45" height="45" rx="15" fill="#FFE0EB"/>
<path d="M21.9062 33H20.3437C19.5683 33 18.9375 32.3692 18.9375 31.5938V21.9062C18.9375 21.1308 19.5683 20.5 20.3437 20.5H21.9062C22.6817 20.5 23.3125 21.1308 23.3125 21.9062V31.5938C23.3125 32.3692 22.6816 33 21.9062 33Z" fill="#FF82AC"/>
<path d="M15.9688 33H14.4063C13.6308 33 13 32.3692 13 31.5938V25.0312C13 24.2558 13.6308 23.625 14.4063 23.625H15.9688C16.7442 23.625 17.375 24.2558 17.375 25.0312V31.5938C17.375 32.3692 16.7441 33 15.9688 33Z" fill="#FF82AC"/>
<path d="M27.8437 33H26.2812C25.5058 33 24.875 32.3692 24.875 31.5938V18.625H24.0164C23.615 18.625 23.2614 18.3984 23.0937 18.0338C22.9259 17.6691 22.984 17.2532 23.2453 16.9484C23.2482 16.9449 23.2513 16.9414 23.2543 16.938L26.597 13.2079C26.7156 13.0756 26.8848 13 27.0625 13C27.2402 13 27.4094 13.0756 27.528 13.2079L30.8707 16.938C30.8737 16.9414 30.8768 16.9449 30.8797 16.9484C31.141 17.2532 31.1991 17.6691 31.0313 18.0338C30.8636 18.3984 30.51 18.625 30.1086 18.625H29.25V31.5938C29.25 32.3692 28.6191 33 27.8437 33Z" fill="#FF82AC"/>
</svg>
