<svg width="45" height="45" viewBox="0 0 45 45" fill="none" xmlns="http://www.w3.org/2000/svg">
<rect width="45" height="45" rx="15" fill="#FFF5D9"/>
<g clip-path="url(#clip0_163_642)">
<path d="M31.3333 17.1668H27.1667V16.3334C27.1667 15.4142 26.4192 14.6667 25.5 14.6667H20.5C19.5808 14.6667 18.8333 15.4142 18.8333 16.3334V17.1668H14.6667C13.7475 17.1668 13 17.9143 13 18.8334V21.3334C13 22.2527 13.7475 23.0001 14.6667 23.0001H21.3334V22.5834C21.3334 22.3531 21.5197 22.1668 21.75 22.1668H24.25C24.4804 22.1668 24.6667 22.3531 24.6667 22.5834V23.0001H31.3334C32.2525 23.0001 33 22.2527 33 21.3334V18.8334C33 17.9143 32.2525 17.1668 31.3333 17.1668ZM25.5 17.1668H20.5V16.3334H25.5V17.1668Z" fill="#FFBB38"/>
<path d="M32.7689 23.4498C32.6269 23.3794 32.4572 23.3957 32.3318 23.4909C32.0356 23.7151 31.6905 23.8335 31.3333 23.8335H24.6667V25.0835C24.6667 25.3138 24.4803 25.5002 24.25 25.5002H21.75C21.5197 25.5002 21.3333 25.3138 21.3333 25.0835V23.8335H14.6667C14.3094 23.8335 13.9644 23.7151 13.6681 23.4909C13.5424 23.3948 13.3731 23.3786 13.2311 23.4498C13.0895 23.5202 13 23.6646 13 23.8229V29.6668C13 30.586 13.7475 31.3335 14.6667 31.3335H31.3334C32.2525 31.3335 33 30.5861 33 29.6668V23.8229C33 23.6646 32.9105 23.5202 32.7689 23.4498Z" fill="#FFBB38"/>
</g>
<defs>
<clipPath id="clip0_163_642">
<rect width="20" height="20" fill="white" transform="translate(13 13)"/>
</clipPath>
</defs>
</svg>
