<svg width="50" height="50" viewBox="0 0 50 50" fill="none" xmlns="http://www.w3.org/2000/svg">
<circle cx="25" cy="25" r="25" fill="#FFF5D9"/>
<path d="M32.3125 32.275L31.2463 20.5687C31.2175 20.2463 30.9475 20 30.6238 20H28.7488V18.75C28.7488 17.745 28.3588 16.8025 27.6525 16.0962C26.9575 15.4 25.99 15 24.9988 15C22.9313 15 21.2488 16.6825 21.2488 18.75V20H19.3738C19.05 20 18.78 20.2463 18.7513 20.5687L17.6875 32.2738C17.6238 32.9725 17.8588 33.6688 18.3313 34.1863C18.8038 34.7038 19.4763 35 20.1775 35H29.8213C30.5213 35 31.1938 34.7038 31.6663 34.1875C32.14 33.67 32.3738 32.9725 32.3125 32.275ZM27.4988 20H22.4988V18.75C22.4988 17.3712 23.62 16.25 24.9988 16.25C25.6613 16.25 26.3063 16.515 26.7688 16.9787C27.24 17.45 27.4988 18.0787 27.4988 18.75V20Z" fill="#FFBB38"/>
</svg>
