<svg width="45" height="45" viewBox="0 0 45 45" fill="none" xmlns="http://www.w3.org/2000/svg">
<rect width="45" height="45" rx="15" fill="#E7EDFF"/>
<g clip-path="url(#clip0_204_2)">
<path d="M22.8572 22.6341C24.1808 22.6341 25.3268 22.1594 26.2633 21.2228C27.1997 20.2863 27.6744 19.1406 27.6744 17.8169C27.6744 16.4936 27.1997 15.3477 26.2631 14.411C25.3265 13.4747 24.1806 13 22.8572 13C21.5335 13 20.3877 13.4747 19.4513 14.4111C18.5149 15.3476 18.04 16.4935 18.04 17.8169C18.04 19.1406 18.5149 20.2865 19.4515 21.2229C20.3881 22.1592 21.534 22.6341 22.8572 22.6341Z" fill="#396AFF"/>
<path d="M31.2862 28.3789C31.2592 27.9891 31.2046 27.564 31.1242 27.1151C31.043 26.6629 30.9385 26.2353 30.8134 25.8445C30.6841 25.4406 30.5083 25.0418 30.291 24.6595C30.0655 24.2628 29.8006 23.9174 29.5034 23.6331C29.1926 23.3357 28.812 23.0966 28.372 22.9222C27.9334 22.7487 27.4474 22.6608 26.9276 22.6608C26.7234 22.6608 26.526 22.7446 26.1446 22.9928C25.91 23.1459 25.6355 23.3229 25.3291 23.5186C25.0671 23.6856 24.7121 23.842 24.2738 23.9836C23.8461 24.122 23.4118 24.1922 22.9832 24.1922C22.5546 24.1922 22.1205 24.122 21.6923 23.9836C21.2544 23.8421 20.8994 23.6857 20.6378 23.5188C20.3343 23.3249 20.0596 23.1479 19.8214 22.9927C19.4406 22.7444 19.243 22.6606 19.0388 22.6606C18.5188 22.6606 18.0329 22.7487 17.5946 22.9223C17.1548 23.0964 16.7741 23.3355 16.463 23.6332C16.1659 23.9177 15.9008 24.263 15.6756 24.6595C15.4585 25.0418 15.2827 25.4405 15.1533 25.8447C15.0283 26.2355 14.9238 26.6629 14.8427 27.1151C14.7622 27.5634 14.7076 27.9887 14.6806 28.3793C14.6541 28.762 14.6406 29.1592 14.6406 29.5603C14.6406 30.6043 14.9725 31.4495 15.6269 32.0728C16.2733 32.6879 17.1286 33 18.1686 33H27.7987C28.8387 33 29.6937 32.6881 30.3402 32.0728C30.9948 31.45 31.3267 30.6046 31.3267 29.5602C31.3265 29.1572 31.3129 28.7597 31.2862 28.3789Z" fill="#396AFF"/>
</g>
<defs>
<clipPath id="clip0_204_2">
<rect width="19.9999" height="20" fill="white" transform="translate(13 13)"/>
</clipPath>
</defs>
</svg>
